<svg id="Layer_1" xmlns="http://www.w3.org/2000/svg" viewBox="0 0 592.9 430">
    <defs>
        <style>
      .st0{fill:#a2a8b0}.st1{opacity:.54;fill:url(#SVGID_1_)}.st2{fill:url(#SVGID_2_)}.st6{fill:#fff}.st7{fill:url(#SVGID_6_)}.st8{fill:url(#SVGID_7_)}.st9{opacity:.15;fill:#fff}.st10{font-family:'Oswald-Regular'}.st11{font-size:21.9842px}.st12{fill:#e7562b}.st13{font-size:29.7202px}.st14{font-size:13.0868px}.st15{fill:#f05c2c}.st17{font-size:6.3439px}.st18{font-size:5.3158px}.st19{font-size:2.4647px}.st20{fill:#ef6c23}
    </style>
        <linearGradient id="SVGID_1_" gradientUnits="userSpaceOnUse" x1="284.1" y1="301.7" x2="57.97" y2="241.11" gradientTransform="matrix(.6131 -.1145 -.1145 .9748 57.24 13.84)">
            <stop offset="0" stop-opacity="0" />
            <stop offset=".86" stop-opacity=".86" />
            <stop offset="1" />
        </linearGradient>
        <linearGradient id="SVGID_2_" gradientUnits="userSpaceOnUse" x1="68.09" y1="269.19" x2="68.09" y2="301.44">
            <stop offset="0" stop-color="#c45219" />
            <stop offset=".06" stop-color="#ca551b" />
            <stop offset=".23" stop-color="#db5c1e" />
            <stop offset=".42" stop-color="#e66020" />
            <stop offset=".65" stop-color="#ee6421" />
            <stop offset="1" stop-color="#f26522" />
        </linearGradient>
        <linearGradient id="SVGID_6_" gradientUnits="userSpaceOnUse" x1="68.1" y1="189.85" x2="111.07" y2="189.85">
            <stop offset="0" stop-color="#fff" />
            <stop offset=".06" stop-color="#e9e8ea" />
        </linearGradient>
        <linearGradient id="SVGID_7_" gradientUnits="userSpaceOnUse" x1="68.1" y1="337.28" x2="111.07" y2="337.28">
            <stop offset="0" stop-color="#fff" />
            <stop offset=".06" stop-color="#e9e8ea" />
        </linearGradient>
    </defs>
    <path xmlns="http://www.w3.org/2000/svg" class="st0" d="M0 0h592.9v430H0z" />
    <g class="bar">
        <g class="bar-shadow">
            <path xmlns="http://www.w3.org/2000/svg" class="st1" d="M232.6 146.5l-126.9-36.8-76.7 263 127.8 35.4z" />
        </g>
        <g class="bar-top">
            <path xmlns="http://www.w3.org/2000/svg" class="st7 bar-top--right" d="M111.1 269.2h-43V110.5h38c2.8 0 5 2.2 5 5v153.7z" />
            <path xmlns="http://www.w3.org/2000/svg" class="st6" d="M111.1 269.2h-86V114.7c0-2.8 2.2-5 5-5h76c2.8 0 5 2.2 5 5v154.5z" />
            <path xmlns="http://www.w3.org/2000/svg" class="st7" d="M111.1 269.2h-43V110.5h38c2.8 0 5 2.2 5 5v153.7z" />
            <text xmlns="http://www.w3.org/2000/svg" transform="translate(75.64 160.03)" class="st12 st10 st18">
        LOREM IPSUM
      </text>
            <text xmlns="http://www.w3.org/2000/svg" transform="translate(75.64 164.6)">
                <tspan x="0" y="0" class="st10 st19">Lorem Ipsum is simply dummy </tspan>
                <tspan x="0" y="3.6" class="st10 st19">text of the printing and typese</tspan>
                <tspan x="0" y="7.3" class="st10 st19">tting industry. Lorem Ipsumhas</tspan>
                <tspan x="0" y="10.9" class="st10 st19">been the industry's standard</tspan>
                <tspan x="0" y="14.6" class="st10 st19">dummy text ever since</tspan>
            </text>
            <g xmlns="http://www.w3.org/2000/svg" class="bar-icon-action">
                <circle class="st20" cx="90.3" cy="189.1" r="2.5" />
                <path class="st20" d="M91.2 192.8c-.6-.1-1.3-.1-1.9 0-4.1.5-5.5 5.3-5.1 8.9.2 1.6 2.7 1.6 2.5 0-.1-1.3-.1-3.3.6-4.8v5.5c0 4.1 0 8.2-.2 12.4-.1 1.8 2.8 1.8 2.8 0 .1-3.2.2-6.5.2-9.7h.4c0 3.2 0 6.5.2 9.7.1 1.8 2.9 1.8 2.8 0-.2-4.1-.2-8.2-.2-12.4v-.4c0-1.8-.1-3.6-.1-5.4.8 1.4.9 3.6.8 5-.2 1.6 2.3 1.6 2.5 0 .4-3.6-1-8.5-5.3-8.8z" />
            </g>
            <text xmlns="http://www.w3.org/2000/svg" transform="matrix(.8386 0 0 1 34.5 144.63)" class="st12 st10 st13 bar-top--left">
        01
      </text>
        </g>
        <g class="bar-bottom">
            <path xmlns="http://www.w3.org/2000/svg" class="st6" d="M106.1 373.1h-76c-2.8 0-5-2.2-5-5v-66.7h86v66.7c0 2.8-2.3 5-5 5z" />
            <path xmlns="http://www.w3.org/2000/svg" class="st8" d="M106.1 373.1h-38v-71.7h43v66.7c0 2.8-2.3 5-5 5z" />
            <circle xmlns="http://www.w3.org/2000/svg" class="st15" cx="100.2" cy="362.6" r="5.8" />
            <text xmlns="http://www.w3.org/2000/svg" transform="rotate(-90 200.95 161.68)" class="st12 st10 st17">
        LOREM IPSUM AMET
      </text>
        </g>
        <g class="bar-dynamic">
            <path xmlns="http://www.w3.org/2000/svg" class="st2" d="M25.5 269.2h85.2v32.2H25.5z" />
            <text xmlns="http://www.w3.org/2000/svg" transform="translate(33.4 294.75)" class="st6 st10 st11">
        25
      </text>
            <text xmlns="http://www.w3.org/2000/svg" transform="translate(54.53 294.64)" class="st6 st10 st14">
        %
      </text>
            <g class="up">
                <circle xmlns="http://www.w3.org/2000/svg" class="st9" cx="91" cy="285.3" r="7.2" />
                <path xmlns="http://www.w3.org/2000/svg" class="st6" d="M94.3 286.8h-6.4l3.2-4.3z" />
            </g>
        </g>
    </g>
</svg>