<svg version="1.1" id="Layer_1" xmlns="http://www.w3.org/2000/svg" xmlns:xlink="http://www.w3.org/1999/xlink" x="0px" y="0px" viewBox="0 0 592.9 430" style="enable-background:new 0 0 592.9 430;" xml:space="preserve">
  <defs>
    <style>
       .st0{fill:#a2a8b0}.st1{opacity:.54;fill:url(#SVGID_1_)}.st2{fill:url(#SVGID_2_)}.st6{fill:#fff}.st7{fill:url(#SVGID_6_)}.st8{fill:url(#SVGID_7_)}.st9{opacity:.15;fill:#fff}.st10{font-family:'Oswald-Regular'}.st11{font-size:21.9842px}.st12{fill:#e7562b}.st13{font-size:29.7202px}.st14{font-size:13.0868px}.st15{fill:#f05c2c}.st17{font-size:6.3439px}.st18{font-size:5.3158px}.st19{font-size:2.4647px}.st20{fill:#ef6c23}
    </style>
    <linearGradient id="SVGID_1_" gradientUnits="userSpaceOnUse" x1="284.1012" y1="301.6978" x2="57.9747" y2="241.1073" gradientTransform="matrix(0.6131 -0.1145 -0.1145 0.9748 57.2435 13.8377)">
		<stop offset="0" style="stop-color:#000000;stop-opacity:0" />
		<stop offset="0.8591" style="stop-color:#000000;stop-opacity:0.8591" />
		<stop offset="1" style="stop-color:#000000" />
	</linearGradient>
    <linearGradient id="SVGID_2_" gradientUnits="userSpaceOnUse" x1="68.0863" y1="269.1943" x2="68.0863" y2="301.4403">
		<stop offset="0" style="stop-color:#C45219" />
		<stop offset="5.732246e-02" style="stop-color:#CA551B" />
		<stop offset="0.2299" style="stop-color:#DB5C1E" />
		<stop offset="0.4227" style="stop-color:#E66020" />
		<stop offset="0.6502" style="stop-color:#EE6421" />
		<stop offset="0.9986" style="stop-color:#F26522" />
	</linearGradient>
    <linearGradient id="SVGID_6_" gradientUnits="userSpaceOnUse" x1="68.0954" y1="189.8523" x2="111.073" y2="189.8523">
		<stop offset="0" style="stop-color:#FFFFFF" />
		<stop offset="6.400000e-02" style="stop-color:#E9E8EA" />
	</linearGradient>
    <linearGradient id="SVGID_7_" gradientUnits="userSpaceOnUse" x1="68.0954" y1="337.2805" x2="111.073" y2="337.2805">
		<stop offset="0" style="stop-color:#FFFFFF" />
		<stop offset="6.400000e-02" style="stop-color:#E9E8EA" />
	</linearGradient>
    
  </defs>
  <rect xmlns="http://www.w3.org/2000/svg" class="st0" width="592.9" height="430" />
  <g class="bar">
    <g class="bar-shadow">
      <polygon xmlns="http://www.w3.org/2000/svg" class="st1" points="232.6,146.5 105.7,109.7 29,372.7 156.8,408.1  " />
    </g>
    <g class="bar-top">
     
      <path xmlns="http://www.w3.org/2000/svg" class="st7 bar-top--right" d="M111.1,269.2h-43V110.5h38c2.8,0,5,2.2,5,5V269.2z" />
      <path xmlns="http://www.w3.org/2000/svg" class="st6" d="M111.1,269.2h-86V114.7c0-2.8,2.2-5,5-5h76c2.8,0,5,2.2,5,5V269.2z" />
      <path xmlns="http://www.w3.org/2000/svg" class="st7" d="M111.1,269.2h-43V110.5h38c2.8,0,5,2.2,5,5V269.2z" />
       <text xmlns="http://www.w3.org/2000/svg" transform="matrix(1 0 0 1 75.6437 160.0298)" class="st12 st10 st18">LOREM IPSUM</text>
      <text xmlns="http://www.w3.org/2000/svg" transform="matrix(1 0 0 1 75.6437 164.6001)"><tspan x="0" y="0" class="st10 st19">Lorem Ipsum is simply dummy </tspan><tspan x="0" y="3.6" class="st10 st19">text of the printing and typese</tspan><tspan x="0" y="7.3" class="st10 st19">tting industry. Lorem Ipsumhas</tspan><tspan x="0" y="10.9" class="st10 st19">been the industry's standard</tspan><tspan x="0" y="14.6" class="st10 st19">dummy text ever since</tspan></text>
      
      <g xmlns="http://www.w3.org/2000/svg" class="bar-icon-action">
			<circle class="st20" cx="90.3" cy="189.1" r="2.5" />
			<path class="st20" d="M91.2,192.8c-0.6-0.1-1.3-0.1-1.9,0c-4.1,0.5-5.5,5.3-5.1,8.9c0.2,1.6,2.7,1.6,2.5,0     c-0.1-1.3-0.1-3.3,0.6-4.8c0,1.7,0,3.5,0,5.2c0,0.1,0,0.1,0,0.2c0,0,0,0.1,0,0.1c0,4.1,0,8.2-0.2,12.4c-0.1,1.8,2.8,1.8,2.8,0     c0.1-3.2,0.2-6.5,0.2-9.7c0.1,0,0.3,0,0.4,0c0,3.2,0,6.5,0.2,9.7c0.1,1.8,2.9,1.8,2.8,0c-0.2-4.1-0.2-8.2-0.2-12.4     c0-0.1,0-0.2,0-0.4c0-1.8-0.1-3.6-0.1-5.4c0.8,1.4,0.9,3.6,0.8,5c-0.2,1.6,2.3,1.6,2.5,0C96.9,198,95.5,193.1,91.2,192.8z" />
		</g>
      
      <text xmlns="http://www.w3.org/2000/svg" transform="matrix(0.8386 0 0 1 34.5021 144.6304)" class="st12 st10 st13 bar-top--left">01</text>
    </g>
    
    <g class="bar-bottom">
      <path xmlns="http://www.w3.org/2000/svg" class="st6" d="M106.1,373.1h-76c-2.8,0-5-2.2-5-5v-66.7h86v66.7C111.1,370.9,108.8,373.1,106.1,373.1z" />
      <path xmlns="http://www.w3.org/2000/svg" class="st8" d="M106.1,373.1h-38v-71.7h43v66.7C111.1,370.9,108.8,373.1,106.1,373.1z" />
      <circle xmlns="http://www.w3.org/2000/svg" class="st15" cx="100.2" cy="362.6" r="5.8" />
      <text xmlns="http://www.w3.org/2000/svg" transform="matrix(0 -1 1 0 39.2795 362.6304)" class="st12 st10 st17">LOREM IPSUM AMET</text>
    </g>

    <g class="bar-dynamic">
    <rect xmlns="http://www.w3.org/2000/svg" x="25.5" y="269.2" class="st2" width="85.2" height="32.2" />
    <text xmlns="http://www.w3.org/2000/svg" transform="matrix(1 0 0 1 33.3918 294.7544)" class="st6 st10 st11">25</text>
      <text xmlns="http://www.w3.org/2000/svg" transform="matrix(1 0 0 1 54.5266 294.6392)" class="st6 st10 st14">%</text>
      <g class="up">
      <circle xmlns="http://www.w3.org/2000/svg" class="st9" cx="91" cy="285.3" r="7.2" />
      <polygon xmlns="http://www.w3.org/2000/svg" class="st6" points="94.3,286.8 91.1,286.8 87.9,286.8 91.1,282.5  " />
        </g>
    </g>


  </g>
</svg>