<svg id="Layer_1" data-name="Layer 1" xmlns="http://www.w3.org/2000/svg" xmlns:xlink="http://www.w3.org/1999/xlink" 
viewBox="0 -30 80 400">

<title>Infographic</title>

<defs>

<style>
.cls-1{fill:none;stroke:#bcbec0;stroke-miterlimit:10;opacity:0.71;}
.cls-2{fill:url(#linear-gradient);}
.cls-3{opacity:0.75;fill:url(#linear-gradient-2);}
.cls-4{font-size:33.45px;fill:#fff;font-family:SegoeUI-Light, Segoe UI;}
.cls-5{font-size:23.59px;}
.cls-6{opacity:0.56;}
.cls-7{fill:#cccccb;}
.cls-8{isolation:isolate;}
.cls-9{font-size:10px;fill:#e6e7e8;font-family:SegoeUI, Segoe UI;}
</style>

<linearGradient id="linear-gradient" y1="167.81" x2="89.97" y2="167.81" gradientUnits="userSpaceOnUse"><stop offset="0"
stop-color="#58595b"/><stop offset="0.06" stop-color="#636567"/><stop offset="0.18" stop-color="#828386"/><stop offset="0.23" 
stop-color="#939598"/><stop offset="0.35" stop-color="#919396"/><stop offset="1" stop-color="#8a8c8e"/></linearGradient>

<linearGradient id="linear-gradient-2" y1="250.65" x2="89.97" y2="250.65" gradientUnits="userSpaceOnUse">
<stop offset="0" stop-color="#9b3f7f"/><stop offset="0.05" stop-color="#a75493"/><stop offset="0.11" stop-color="#b267a4"/>
<stop offset="0.17" stop-color="#b972af"/><stop offset="0.23" stop-color="#bb76b2"/><stop offset="0.42" stop-color="#9d5894"/>
<stop offset="0.66" stop-color="#793571"/><stop offset="0.87" stop-color="#64205c"/><stop offset="1" stop-color="#5c1854"/>
</linearGradient>

</defs>


<path class="cls-1" d="M383.28,102.62a4,4,0,0,1,4,4V434.25a4,4,0,0,1-4,4h-82a4,4,0,0,1-4-4" 
transform="translate(-290.82 -96.37)"/>

<rect class="cls-2" width="90" height="340" rx="4" ry="4"/>

<rect transform="translate(0,-100)" class="cls-3" y="165.68" width="90" height="275" rx="4" ry="4"/>
<text class="cls-4" transform="translate(18.42 303.91)">45<tspan class="cls-5" x="34.99" y="0">%</tspan></text>

<g class="cls-6">
<path class="cls-7" d="M314,251.75l.57.35a16.79,16.79,0,0,0,5.3,2.22l.64.15V260a.44.44,0,0,0,.43.43h5.4a.43.43,0,0,0,.43-.43v-5.46l.65-.14a17,17,0,0,0,5.35-2.2l.56-.34,3.84,3.84a.45.45,0,0,0,.61,0l3.82-3.81a.47.47,0,0,0,.13-.31.39.39,0,0,0-.13-.31l-3.83-3.83.36-.55a17.11,17.11,0,0,0,2.23-5.36l.14-.64h5.4a.43.43,0,0,0,.44-.44V235a.44.44,0,0,0-.44-.44h-5.4l-.14-.64a16.92,16.92,0,0,0-2.23-5.37l-.36-.56,3.83-3.83a.39.39,0,0,0,.13-.3.42.42,0,0,0-.13-.3l-3.82-3.82c-.29-.3-.47-.12-.61,0l-3.83,3.84-.55-.35a17.24,17.24,0,0,0-5.36-2.19l-.65-.15v-5.45a.43.43,0,0,0-.43-.43h-5.4a.43.43,0,0,0-.43.43v5.48l-.64.15a17.11,17.11,0,0,0-5.3,2.22l-.57.36-3.89-3.9a.37.37,0,0,0-.61,0l-3.81,3.82a.41.41,0,0,0-.13.3.44.44,0,0,0,.13.3l3.91,3.9-.35.56a16.77,16.77,0,0,0-2.18,5.29l-.14.64h-5.53a.44.44,0,0,0-.44.44v5.39a.44.44,0,0,0,.44.44h5.53l.14.64a16.7,16.7,0,0,0,2.18,5.28l.35.55-3.91,3.91a.43.43,0,0,0-.13.31.41.41,0,0,0,.13.3l3.81,3.82a.45.45,0,0,0,.61,0Z" 
transform="translate(-290.82 -96.37)"/>
<path class="cls-7" d="M348.4,229.3l.4.53a11.79,11.79,0,0,0,2.86,2.74l.55.37-1.45,3.79,3.6,1.44a.07.07,0,0,0,.05,0l1.45-3.77.65.1a11.85,11.85,0,0,0,4-.09l.64-.13,1.63,3.68,3.54-1.51-1.59-3.75.52-.4a11.68,11.68,0,0,0,2.77-2.9l.36-.55,3.74,1.43,1.44-3.58-3.76-1.52.09-.64a11.3,11.3,0,0,0-.11-4l-.13-.65,3.65-1.63-1.51-3.55-3.74,1.6-.4-.52a11.67,11.67,0,0,0-2.9-2.75l-.55-.36,1.44-3.76-3.58-1.44-1.52,3.81-.65-.09a11.86,11.86,0,0,0-4,.12l-.65.13-1.66-3.72-3.54,1.51L351.7,213l-.52.4a11.7,11.7,0,0,0-2.72,2.87l-.37.54-3.82-1.46-1.44,3.58,3.85,1.54-.09.66a11.57,11.57,0,0,0,.09,3.93l.13.65-3.74,1.66,1.5,3.55Z" 
transform="translate(-290.82 -96.37)"/></g>

<g class="cls-8">
<text class="cls-9" transform="translate(13.1 21.18)">SAMPLE TEXT</text></g>

</svg>